<?xml version="1.0" encoding="UTF-8"?>
<svg width="512" height="512" xmlns="http://www.w3.org/2000/svg">
  <defs>
    <style>
      .label { font-family: Arial; font-size: 8px; fill: white; text-anchor: middle; }
    </style>
  </defs>
  <rect x="0" y="0" width="128" height="128" fill="#8B0000" stroke="#000" stroke-width="1"/>
  <circle cx="44.8" cy="51.2" r="2" fill="#fff"/>
  <circle cx="83.2" cy="51.2" r="2" fill="#fff"/>
  <text x="64" y="102.4" class="label">UP1</text>
  <rect x="128" y="0" width="128" height="128" fill="#8B0000" stroke="#000" stroke-width="1"/>
  <circle cx="172.8" cy="53.2" r="2" fill="#fff"/>
  <circle cx="211.2" cy="53.2" r="2" fill="#fff"/>
  <rect x="256" y="0" width="128" height="128" fill="#8B0000" stroke="#000" stroke-width="1"/>
  <circle cx="300.8" cy="51.2" r="2" fill="#fff"/>
  <circle cx="339.2" cy="51.2" r="2" fill="#fff"/>
  <rect x="384" y="0" width="128" height="128" fill="#8B0000" stroke="#000" stroke-width="1"/>
  <circle cx="428.8" cy="53.2" r="2" fill="#fff"/>
  <circle cx="467.2" cy="53.2" r="2" fill="#fff"/>
  <rect x="0" y="128" width="128" height="128" fill="#8B0000" stroke="#000" stroke-width="1"/>
  <circle cx="44.8" cy="179.2" r="2" fill="#fff"/>
  <circle cx="83.2" cy="179.2" r="2" fill="#fff"/>
  <text x="64" y="230.4" class="label">LEFT1</text>
  <rect x="128" y="128" width="128" height="128" fill="#8B0000" stroke="#000" stroke-width="1"/>
  <circle cx="172.8" cy="181.2" r="2" fill="#fff"/>
  <circle cx="211.2" cy="181.2" r="2" fill="#fff"/>
  <rect x="256" y="128" width="128" height="128" fill="#8B0000" stroke="#000" stroke-width="1"/>
  <circle cx="300.8" cy="179.2" r="2" fill="#fff"/>
  <circle cx="339.2" cy="179.2" r="2" fill="#fff"/>
  <rect x="384" y="128" width="128" height="128" fill="#8B0000" stroke="#000" stroke-width="1"/>
  <circle cx="428.8" cy="181.2" r="2" fill="#fff"/>
  <circle cx="467.2" cy="181.2" r="2" fill="#fff"/>
  <rect x="0" y="256" width="128" height="128" fill="#8B0000" stroke="#000" stroke-width="1"/>
  <circle cx="44.8" cy="307.2" r="2" fill="#fff"/>
  <circle cx="83.2" cy="307.2" r="2" fill="#fff"/>
  <text x="64" y="358.4" class="label">DOWN1</text>
  <rect x="128" y="256" width="128" height="128" fill="#8B0000" stroke="#000" stroke-width="1"/>
  <circle cx="172.8" cy="309.2" r="2" fill="#fff"/>
  <circle cx="211.2" cy="309.2" r="2" fill="#fff"/>
  <rect x="256" y="256" width="128" height="128" fill="#8B0000" stroke="#000" stroke-width="1"/>
  <circle cx="300.8" cy="307.2" r="2" fill="#fff"/>
  <circle cx="339.2" cy="307.2" r="2" fill="#fff"/>
  <rect x="384" y="256" width="128" height="128" fill="#8B0000" stroke="#000" stroke-width="1"/>
  <circle cx="428.8" cy="309.2" r="2" fill="#fff"/>
  <circle cx="467.2" cy="309.2" r="2" fill="#fff"/>
  <rect x="0" y="384" width="128" height="128" fill="#8B0000" stroke="#000" stroke-width="1"/>
  <circle cx="44.8" cy="435.2" r="2" fill="#fff"/>
  <circle cx="83.2" cy="435.2" r="2" fill="#fff"/>
  <text x="64" y="486.4" class="label">RIGHT1</text>
  <rect x="128" y="384" width="128" height="128" fill="#8B0000" stroke="#000" stroke-width="1"/>
  <circle cx="172.8" cy="437.2" r="2" fill="#fff"/>
  <circle cx="211.2" cy="437.2" r="2" fill="#fff"/>
  <rect x="256" y="384" width="128" height="128" fill="#8B0000" stroke="#000" stroke-width="1"/>
  <circle cx="300.8" cy="435.2" r="2" fill="#fff"/>
  <circle cx="339.2" cy="435.2" r="2" fill="#fff"/>
  <rect x="384" y="384" width="128" height="128" fill="#8B0000" stroke="#000" stroke-width="1"/>
  <circle cx="428.8" cy="437.2" r="2" fill="#fff"/>
  <circle cx="467.2" cy="437.2" r="2" fill="#fff"/>
</svg>